<svg xmlns="http://www.w3.org/2000/svg" xmlns:xlink="http://www.w3.org/1999/xlink" width="500" zoomAndPan="magnify" viewBox="0 0 375 374.999991" height="500" preserveAspectRatio="xMidYMid meet" version="1.0"><defs><g/></defs><rect x="-37.5" width="450" fill="#ffffff" y="-37.499999" height="449.999989" fill-opacity="1"/><rect x="-37.5" width="450" fill="#ffffff" y="-37.499999" height="449.999989" fill-opacity="1"/><rect x="-37.5" width="450" fill="#ffffff" y="-37.499999" height="449.999989" fill-opacity="1"/><rect x="-37.5" width="450" fill="#ffffff" y="-37.499999" height="449.999989" fill-opacity="1"/><g fill="#000000" fill-opacity="1"><g transform="translate(83.233875, 204.645181)"><g><path d="M 5.5625 0 C 5.289062 0 5.078125 -0.0703125 4.921875 -0.21875 C 4.773438 -0.375 4.703125 -0.582031 4.703125 -0.84375 L 4.703125 -38.859375 C 4.703125 -39.128906 4.773438 -39.335938 4.921875 -39.484375 C 5.078125 -39.640625 5.289062 -39.71875 5.5625 -39.71875 L 9.359375 -39.71875 C 9.816406 -39.71875 10.15625 -39.523438 10.375 -39.140625 L 19.90625 -23.9375 C 20.019531 -23.707031 20.132812 -23.707031 20.25 -23.9375 L 29.84375 -39.140625 C 30.070312 -39.523438 30.410156 -39.71875 30.859375 -39.71875 L 34.671875 -39.71875 C 34.929688 -39.71875 35.132812 -39.640625 35.28125 -39.484375 C 35.4375 -39.335938 35.515625 -39.128906 35.515625 -38.859375 L 35.515625 -0.84375 C 35.515625 -0.582031 35.4375 -0.375 35.28125 -0.21875 C 35.132812 -0.0703125 34.929688 0 34.671875 0 L 30.921875 0 C 30.648438 0 30.4375 -0.0703125 30.28125 -0.21875 C 30.132812 -0.375 30.0625 -0.582031 30.0625 -0.84375 L 30.0625 -29.671875 C 30.0625 -29.828125 30.023438 -29.910156 29.953125 -29.921875 C 29.878906 -29.941406 29.804688 -29.894531 29.734375 -29.78125 L 22.015625 -17.1875 C 21.785156 -16.8125 21.441406 -16.625 20.984375 -16.625 L 19.171875 -16.625 C 18.722656 -16.625 18.382812 -16.8125 18.15625 -17.1875 L 10.5 -29.78125 C 10.414062 -29.894531 10.335938 -29.941406 10.265625 -29.921875 C 10.191406 -29.910156 10.15625 -29.828125 10.15625 -29.671875 L 10.15625 -0.84375 C 10.15625 -0.582031 10.078125 -0.375 9.921875 -0.21875 C 9.773438 -0.0703125 9.566406 0 9.296875 0 Z M 5.5625 0 "/></g></g></g><g fill="#000000" fill-opacity="1"><g transform="translate(123.399533, 204.645181)"><g><path d="M 15.828125 0.453125 C 12.992188 0.453125 10.546875 -0.253906 8.484375 -1.671875 C 6.421875 -3.085938 4.972656 -5.066406 4.140625 -7.609375 C 3.460938 -9.648438 3.125 -11.957031 3.125 -14.53125 C 3.125 -17.207031 3.441406 -19.472656 4.078125 -21.328125 C 4.910156 -23.828125 6.367188 -25.785156 8.453125 -27.203125 C 10.535156 -28.617188 13.015625 -29.328125 15.890625 -29.328125 C 18.609375 -29.328125 20.976562 -28.617188 23 -27.203125 C 25.03125 -25.785156 26.476562 -23.847656 27.34375 -21.390625 C 28.019531 -19.460938 28.359375 -17.191406 28.359375 -14.578125 C 28.359375 -11.929688 28.019531 -9.609375 27.34375 -7.609375 C 26.507812 -5.066406 25.070312 -3.085938 23.03125 -1.671875 C 20.988281 -0.253906 18.585938 0.453125 15.828125 0.453125 Z M 15.828125 -4.25 C 17.335938 -4.25 18.660156 -4.675781 19.796875 -5.53125 C 20.929688 -6.382812 21.742188 -7.585938 22.234375 -9.140625 C 22.648438 -10.578125 22.859375 -12.351562 22.859375 -14.46875 C 22.859375 -16.582031 22.671875 -18.34375 22.296875 -19.75 C 21.804688 -21.289062 20.992188 -22.488281 19.859375 -23.34375 C 18.722656 -24.195312 17.34375 -24.625 15.71875 -24.625 C 14.164062 -24.625 12.820312 -24.195312 11.6875 -23.34375 C 10.550781 -22.488281 9.738281 -21.289062 9.25 -19.75 C 8.832031 -18.425781 8.625 -16.664062 8.625 -14.46875 C 8.625 -12.269531 8.832031 -10.492188 9.25 -9.140625 C 9.695312 -7.585938 10.5 -6.382812 11.65625 -5.53125 C 12.8125 -4.675781 14.203125 -4.25 15.828125 -4.25 Z M 15.828125 -4.25 "/></g></g></g><g fill="#000000" fill-opacity="1"><g transform="translate(154.88533, 204.645181)"><g><path d="M 15.546875 0.453125 C 12.671875 0.453125 10.210938 -0.273438 8.171875 -1.734375 C 6.128906 -3.191406 4.726562 -5.164062 3.96875 -7.65625 C 3.40625 -9.394531 3.125 -11.6875 3.125 -14.53125 C 3.125 -17.132812 3.40625 -19.421875 3.96875 -21.390625 C 4.726562 -23.804688 6.140625 -25.734375 8.203125 -27.171875 C 10.265625 -28.609375 12.710938 -29.328125 15.546875 -29.328125 C 18.378906 -29.328125 20.851562 -28.609375 22.96875 -27.171875 C 25.09375 -25.734375 26.476562 -23.921875 27.125 -21.734375 C 27.3125 -21.234375 27.441406 -20.703125 27.515625 -20.140625 L 27.515625 -20.03125 C 27.515625 -19.570312 27.269531 -19.304688 26.78125 -19.234375 L 23.09375 -18.71875 L 22.921875 -18.71875 C 22.503906 -18.71875 22.238281 -18.925781 22.125 -19.34375 L 21.953125 -20.078125 C 21.648438 -21.367188 20.910156 -22.445312 19.734375 -23.3125 C 18.566406 -24.1875 17.148438 -24.625 15.484375 -24.625 C 13.859375 -24.625 12.476562 -24.1875 11.34375 -23.3125 C 10.207031 -22.445312 9.472656 -21.296875 9.140625 -19.859375 C 8.796875 -18.492188 8.625 -16.695312 8.625 -14.46875 C 8.625 -12.269531 8.796875 -10.492188 9.140625 -9.140625 C 9.515625 -7.617188 10.257812 -6.421875 11.375 -5.546875 C 12.488281 -4.679688 13.859375 -4.25 15.484375 -4.25 C 17.109375 -4.25 18.507812 -4.675781 19.6875 -5.53125 C 20.863281 -6.382812 21.617188 -7.472656 21.953125 -8.796875 L 22.015625 -9.015625 L 22.015625 -9.078125 C 22.046875 -9.265625 22.15625 -9.441406 22.34375 -9.609375 C 22.539062 -9.785156 22.753906 -9.851562 22.984375 -9.8125 L 26.671875 -9.1875 C 27.191406 -9.070312 27.4375 -8.769531 27.40625 -8.28125 C 27.363281 -8.132812 27.269531 -7.773438 27.125 -7.203125 C 26.476562 -4.898438 25.09375 -3.046875 22.96875 -1.640625 C 20.851562 -0.242188 18.378906 0.453125 15.546875 0.453125 Z M 15.546875 0.453125 "/></g></g></g><g fill="#000000" fill-opacity="1"><g transform="translate(184.725922, 204.645181)"><g><path d="M 4.828125 0 C 4.554688 0 4.34375 -0.0703125 4.1875 -0.21875 C 4.039062 -0.375 3.96875 -0.582031 3.96875 -0.84375 L 3.96875 -38.859375 C 3.96875 -39.128906 4.039062 -39.335938 4.1875 -39.484375 C 4.34375 -39.640625 4.554688 -39.71875 4.828125 -39.71875 L 8.5625 -39.71875 C 8.832031 -39.71875 9.039062 -39.640625 9.1875 -39.484375 C 9.34375 -39.335938 9.421875 -39.128906 9.421875 -38.859375 L 9.421875 -17.421875 C 9.421875 -17.304688 9.457031 -17.226562 9.53125 -17.1875 C 9.601562 -17.15625 9.679688 -17.191406 9.765625 -17.296875 L 20.078125 -28.421875 C 20.347656 -28.722656 20.691406 -28.875 21.109375 -28.875 L 25.46875 -28.875 C 25.925781 -28.875 26.15625 -28.722656 26.15625 -28.421875 C 26.15625 -28.234375 26.078125 -28.046875 25.921875 -27.859375 L 18.953125 -19.75 C 18.835938 -19.632812 18.816406 -19.5 18.890625 -19.34375 L 27.34375 -1.015625 L 27.453125 -0.5625 C 27.453125 -0.1875 27.207031 0 26.71875 0 L 22.75 0 C 22.257812 0 21.9375 -0.207031 21.78125 -0.625 L 15.203125 -15.828125 C 15.160156 -15.898438 15.09375 -15.945312 15 -15.96875 C 14.90625 -15.988281 14.84375 -15.960938 14.8125 -15.890625 L 9.53125 -10.09375 C 9.457031 -9.945312 9.421875 -9.816406 9.421875 -9.703125 L 9.421875 -0.84375 C 9.421875 -0.582031 9.34375 -0.375 9.1875 -0.21875 C 9.039062 -0.0703125 8.832031 0 8.5625 0 Z M 4.828125 0 "/></g></g></g><g fill="#4544e0" fill-opacity="1"><g transform="translate(213.763836, 204.645181)"><g><path d="M 5.5 0 C 5.238281 0 5.03125 -0.0703125 4.875 -0.21875 C 4.726562 -0.375 4.65625 -0.582031 4.65625 -0.84375 L 4.65625 -38.859375 C 4.65625 -39.128906 4.726562 -39.335938 4.875 -39.484375 C 5.03125 -39.640625 5.238281 -39.71875 5.5 -39.71875 L 9.25 -39.71875 C 9.507812 -39.71875 9.710938 -39.640625 9.859375 -39.484375 C 10.015625 -39.335938 10.09375 -39.128906 10.09375 -38.859375 L 10.09375 -0.84375 C 10.09375 -0.582031 10.015625 -0.375 9.859375 -0.21875 C 9.710938 -0.0703125 9.507812 0 9.25 0 Z M 5.5 0 "/></g></g></g><g fill="#4544e0" fill-opacity="1"><g transform="translate(228.513932, 204.645181)"><g><path d="M 16.84375 -29.28125 C 19.945312 -29.28125 22.40625 -28.378906 24.21875 -26.578125 C 26.039062 -24.785156 26.953125 -22.359375 26.953125 -19.296875 L 26.953125 -0.84375 C 26.953125 -0.582031 26.875 -0.375 26.71875 -0.21875 C 26.570312 -0.0703125 26.363281 0 26.09375 0 L 22.359375 0 C 22.085938 0 21.875 -0.0703125 21.71875 -0.21875 C 21.570312 -0.375 21.5 -0.582031 21.5 -0.84375 L 21.5 -18.21875 C 21.5 -20.101562 20.953125 -21.628906 19.859375 -22.796875 C 18.765625 -23.972656 17.304688 -24.5625 15.484375 -24.5625 C 13.859375 -24.5625 12.488281 -24.078125 11.375 -23.109375 C 10.257812 -22.148438 9.609375 -20.859375 9.421875 -19.234375 L 9.421875 -0.84375 C 9.421875 -0.582031 9.34375 -0.375 9.1875 -0.21875 C 9.039062 -0.0703125 8.832031 0 8.5625 0 L 4.828125 0 C 4.554688 0 4.34375 -0.0703125 4.1875 -0.21875 C 4.039062 -0.375 3.96875 -0.582031 3.96875 -0.84375 L 3.96875 -28.03125 C 3.96875 -28.289062 4.039062 -28.492188 4.1875 -28.640625 C 4.34375 -28.796875 4.554688 -28.875 4.828125 -28.875 L 8.5625 -28.875 C 8.832031 -28.875 9.039062 -28.796875 9.1875 -28.640625 C 9.34375 -28.492188 9.421875 -28.289062 9.421875 -28.03125 L 9.421875 -26.4375 C 9.421875 -26.320312 9.457031 -26.242188 9.53125 -26.203125 C 9.601562 -26.171875 9.660156 -26.191406 9.703125 -26.265625 C 11.285156 -28.273438 13.664062 -29.28125 16.84375 -29.28125 Z M 16.84375 -29.28125 "/></g></g></g><g fill="#4544e0" fill-opacity="1"><g transform="translate(259.262227, 204.645181)"><g><path d="M 18.21875 -25.25 C 18.21875 -24.976562 18.140625 -24.765625 17.984375 -24.609375 C 17.835938 -24.460938 17.628906 -24.390625 17.359375 -24.390625 L 11.578125 -24.390625 C 11.390625 -24.390625 11.296875 -24.296875 11.296875 -24.109375 L 11.296875 -9.296875 C 11.296875 -7.671875 11.644531 -6.519531 12.34375 -5.84375 C 13.039062 -5.164062 14.164062 -4.828125 15.71875 -4.828125 L 17.078125 -4.828125 C 17.335938 -4.828125 17.539062 -4.75 17.6875 -4.59375 C 17.84375 -4.445312 17.921875 -4.238281 17.921875 -3.96875 L 17.921875 -1.015625 C 17.921875 -0.492188 17.640625 -0.191406 17.078125 -0.109375 L 14.75 -0.0625 C 11.832031 -0.0625 9.65625 -0.570312 8.21875 -1.59375 C 6.789062 -2.613281 6.078125 -4.519531 6.078125 -7.3125 L 6.078125 -24.109375 C 6.078125 -24.296875 5.976562 -24.390625 5.78125 -24.390625 L 2.671875 -24.390625 C 2.398438 -24.390625 2.1875 -24.460938 2.03125 -24.609375 C 1.882812 -24.765625 1.8125 -24.976562 1.8125 -25.25 L 1.8125 -28.03125 C 1.8125 -28.289062 1.882812 -28.492188 2.03125 -28.640625 C 2.1875 -28.796875 2.398438 -28.875 2.671875 -28.875 L 5.78125 -28.875 C 5.976562 -28.875 6.078125 -28.96875 6.078125 -29.15625 L 6.078125 -35.515625 C 6.078125 -35.773438 6.148438 -35.976562 6.296875 -36.125 C 6.453125 -36.28125 6.660156 -36.359375 6.921875 -36.359375 L 10.4375 -36.359375 C 10.707031 -36.359375 10.914062 -36.28125 11.0625 -36.125 C 11.21875 -35.976562 11.296875 -35.773438 11.296875 -35.515625 L 11.296875 -29.15625 C 11.296875 -28.96875 11.390625 -28.875 11.578125 -28.875 L 17.359375 -28.875 C 17.628906 -28.875 17.835938 -28.796875 17.984375 -28.640625 C 18.140625 -28.492188 18.21875 -28.289062 18.21875 -28.03125 Z M 18.21875 -25.25 "/></g></g></g></svg>